<?xml version="1.0" encoding="utf-8"?>
<!-- Generator: Adobe Illustrator 27.6.0, SVG Export Plug-In . SVG Version: 6.00 Build 0)  -->
<svg version="1.1" id="Layer_1" xmlns="http://www.w3.org/2000/svg" xmlns:xlink="http://www.w3.org/1999/xlink" x="0px" y="0px"
	 viewBox="0 0 1840.1 558.4" style="enable-background:new 0 0 1840.1 558.4;" xml:space="preserve">
<style type="text/css">
	.st0{fill:#FFFFFF;}
</style>
<g>
	<g>
		<path class="st0" d="M698.4,233.6c-1.4-10.3-11.8-31.9-12-31.6c-27.8-50.9-81.8-85.6-143.8-85.6c-62,0-116,34.6-143.8,85.6
			c-27.8-50.9-81.8-85.6-143.8-85.6c-90.3,0-163.7,73.5-163.7,163.7c0,90.3,73.5,163.7,163.7,163.7c11.2,0,20.3-9.1,20.3-20.3
			c0-11.2-9.1-20.3-20.3-20.3c-67.9,0-123.2-55.3-123.2-123.2c0-67.9,55.2-123.2,123.2-123.2c67.9,0,123.2,55.3,123.2,123.2
			c0,2,0.4,3.9,0.9,5.7c3,87.7,75.2,158.1,163.6,158.1c11.2,0,20.3-9.1,20.3-20.3c0-11.2-9.1-20.3-20.3-20.3
			c-67.9,0-123.2-55.3-123.2-123.2c0-67.9,55.2-123.2,123.2-123.2c67.9,0,123.2,55.3,123.2,123.2C665.7,281.4,699.2,240,698.4,233.6
			z"/>
		<path class="st0" d="M304.6,307.8l-35.7,0l0,35.7c0,11.2-9.1,20.3-20.3,20.3c-5.6,0-10.7-2.3-14.4-5.9c-3.7-3.7-5.9-8.7-5.9-14.3
			l0-35.7h-35.7c-5.6,0-10.7-2.3-14.3-5.9c-3.7-3.7-5.9-8.7-5.9-14.3c0-11.2,9.1-20.3,20.3-20.3l35.7,0l0-35.7
			c0-11.2,9.1-20.3,20.3-20.3c11.2,0,20.3,9.1,20.3,20.3l0,35.7l35.7,0c11.2,0,20.3,9.1,20.3,20.3
			C324.9,298.7,315.8,307.8,304.6,307.8z"/>
		<path class="st0" d="M466.8,251.7l54.6,94.6c2.9,5,8.3,8.1,14.1,8.1c5.8,0,11.2-3.1,14.1-8.1l55.2-95.6c0.8-1.3,1.4-2.7,1.8-4.1
			c0.4-1.4,0.6-2.7,0.6-4.1c0-0.5,0-1-0.1-1.5c-0.2-2.3-1-4.4-2.1-6.3c-1.1-2-2.7-3.3-4.6-4.7c-1.6-1.1-3.3-1.2-5.2-1.8
			c-1.5-0.4-115.4-0.6-115.6-0.5c-8.7,0.3-15.7,6-15.7,14.7C463.9,245.8,465,249.1,466.8,251.7z M562.8,255.9l-27.2,47.2l-27.2-47.2
			H562.8z"/>
		<path class="st0" d="M291.3,404.8c0.9-11.5,11-20.1,22.5-19.2c11.5,0.9,20.1,11,19.2,22.5c-0.9,11.5-11,20.1-22.5,19.2
			C299,426.4,290.4,416.4,291.3,404.8z"/>
	</g>
	<g>
		<path class="st0" d="M783.9,349.6c8.5-9.2,13.5-24.2,14.2-50.9h-44.8v-42.3h90.7v32.4c0,39.5-8.5,69-24.5,87.9
			c-14.9,18.1-37,27.4-64,27.4c-23.8,0-42.7-6.8-57.3-19.2c-21.3-18.1-33.1-49.4-33.1-96V245c0-45.5,11.7-76.8,33.1-95.3
			c14.6-12.1,33.4-19.6,56.9-19.6c18.9,0,35.6,4.6,49.4,14.2c13.9,9.2,24.5,23.1,31.7,42.3l-40.9,17.1
			c-8.2-23.1-23.8-30.6-40.2-30.6c-12.1,0-21.3,3.6-28.8,11.4c-9.6,10.7-14.9,29.2-14.9,62.6v40.6c0,32.7,5.3,51.2,14.9,61.9
			c7.5,7.8,17.1,11.4,29.2,11.4C766.5,360.9,776.8,357.7,783.9,349.6z"/>
		<path class="st0" d="M872.2,345.3v-2.5c0-34.9,25.6-61.2,84-61.2h27.7c0-24.2-13.9-36.6-33.1-36.6c-17.4,0-27.7,9.6-31.3,20.3
			L878.2,251c8.2-25.3,33.4-46.6,72.6-46.6c44.8,0,76.1,27,76.1,80.8v115.3h-43v-19.2c-10,14.6-26.7,22.4-48.4,22.4
			C896.7,403.6,872.2,379.1,872.2,345.3z M944,364.9c21.7,0,39.5-11.7,39.5-43.4v-4.3h-24.9c-33.1,0-43,11-43,24.9v1.1
			C915.6,356.3,926.9,364.9,944,364.9z"/>
		<path class="st0" d="M1215.4,400.4H1172V282.7c0-25.6-13.5-37.7-31.3-37.7c-18.9,0-30.9,12.1-30.9,37.7v117.7h-43.4V208.3h43.4
			v18.5c8.5-12.8,21.7-22.1,43-22.1c20.3,0,38.8,9.6,49.8,27.4c11.7-16.4,29.5-27.4,53.4-27.4c37,0,65.1,27.4,65.1,76.5v119.2h-43.4
			V282.7c0-25.6-13.5-37.7-31.3-37.7c-18.9,0-30.9,12.1-30.9,37.7V400.4z"/>
		<path class="st0" d="M1510,324.3h-110.3c1.1,18.1,5.3,27,11.4,32.7c6,5.7,14.2,7.8,22.1,7.8c16.7,0,28.1-8.2,32.4-20.6l39.5,14.2
			c-11,29.2-36.3,45.5-71.9,45.5c-19.2,0-35.6-5.3-48.4-15.7c-17.8-13.9-28.5-38.4-28.5-72.2v-17.8c0-35.6,10-59.1,25.6-73.6
			c13.5-12.8,30.9-19.9,51.2-19.9c19.6,0,36.6,6.8,49.8,18.1c16.4,14.2,27,37.4,27,73.6V324.3z M1399.7,289.1h66.9
			c0-19.9-4.6-29.2-10.7-35.2c-6.4-6.4-14.6-9.2-22.8-9.2c-8.5,0-17.1,2.8-23.1,10C1404.7,260.6,1400.8,269.9,1399.7,289.1z"/>
		<path class="st0" d="M1586.1,261.3c0,12.1,12.1,17.1,31.7,23.1c39.5,11.7,60.5,29.5,60.5,60.5v2.5c0,33.1-27.4,56.6-67.9,56.6
			c-38.4,0-65.8-19.9-73.6-50.9l38.4-13.5c3.2,16.7,16,27.7,35.2,27.7c15.3,0,25.6-8.5,25.6-20.3c0-13.2-12.8-18.5-33.1-24.9
			c-37.7-10.7-59.4-29.2-59.4-59.1V261c0-31.7,28.1-56.2,66.5-56.2c37.7,0,61.2,21.7,66.9,49.8l-37,12.1
			c-3.6-16-14.6-24.5-29.9-24.5C1595.4,242.1,1586.1,249.9,1586.1,261.3z"/>
	</g>
</g>
</svg>
